<?xml version="1.0" encoding="utf-8" standalone="no"?>
<!DOCTYPE svg PUBLIC "-//W3C//DTD SVG 1.1//EN"
  "http://www.w3.org/Graphics/SVG/1.1/DTD/svg11.dtd">
<svg xmlns:xlink="http://www.w3.org/1999/xlink" width="460.8pt" height="460.8pt" viewBox="0 0 460.8 460.8" xmlns="http://www.w3.org/2000/svg" version="1.1">
 <metadata>
  <rdf:RDF xmlns:dc="http://purl.org/dc/elements/1.1/" xmlns:cc="http://creativecommons.org/ns#" xmlns:rdf="http://www.w3.org/1999/02/22-rdf-syntax-ns#">
   <cc:Work>
    <dc:type rdf:resource="http://purl.org/dc/dcmitype/StillImage"/>
    <dc:date>2026-08-17T19:43:01.203589</dc:date>
    <dc:format>image/svg+xml</dc:format>
    <dc:creator>
     <cc:Agent>
      <dc:title>Matplotlib v3.10.8, https://matplotlib.org/</dc:title>
     </cc:Agent>
    </dc:creator>
   </cc:Work>
  </rdf:RDF>
 </metadata>
 <defs>
  <style type="text/css">*{stroke-linejoin: round; stroke-linecap: butt}</style>
 </defs>
 <g id="figure_1">
  <g id="patch_1">
   <path d="M 0 460.8 
L 460.8 460.8 
L 460.8 0 
L 0 0 
z
" style="fill: #ffffff"/>
  </g>
  <g id="axes_1">
   <g id="patch_2">
    <path d="M 48.08 418.48 
L 450 418.48 
L 450 36.384 
L 48.08 36.384 
z
" style="fill: #ffffff"/>
   </g>
   <g id="FillBetweenPolyCollection_1">
    <defs>
     <path id="m9a8acbf57c" d="M 58.428563 -424.416 
L 58.428563 -52.158138 
L 450 -424.416 
L 450 -424.416 
L 450 -424.416 
L 58.428563 -424.416 
z
" style="stroke: #c0603a; stroke-opacity: 0.05"/>
    </defs>
    <g clip-path="url(#p62d0c01049)">
     <use xlink:href="#m9a8acbf57c" x="0" y="460.8" style="fill: #c0603a; fill-opacity: 0.05; stroke: #c0603a; stroke-opacity: 0.05"/>
    </g>
   </g>
   <g id="matplotlib.axis_1">
    <g id="xtick_1">
     <g id="line2d_1">
      <defs>
       <path id="m354e63005d" d="M 0 0 
L 0 3.5 
" style="stroke: #000000; stroke-width: 0.8"/>
      </defs>
      <g>
       <use xlink:href="#m354e63005d" x="58.428563" y="418.48" style="stroke: #000000; stroke-width: 0.8"/>
      </g>
     </g>
     <g id="text_1">
      <!-- 0.0 -->
      <g transform="translate(50.477001 433.078438) scale(0.1 -0.1)">
       <defs>
        <path id="DejaVuSans-30" d="M 2034 4250 
Q 1547 4250 1301 3770 
Q 1056 3291 1056 2328 
Q 1056 1369 1301 889 
Q 1547 409 2034 409 
Q 2525 409 2770 889 
Q 3016 1369 3016 2328 
Q 3016 3291 2770 3770 
Q 2525 4250 2034 4250 
z
M 2034 4750 
Q 2819 4750 3233 4129 
Q 3647 3509 3647 2328 
Q 3647 1150 3233 529 
Q 2819 -91 2034 -91 
Q 1250 -91 836 529 
Q 422 1150 422 2328 
Q 422 3509 836 4129 
Q 1250 4750 2034 4750 
z
" transform="scale(0.015625)"/>
        <path id="DejaVuSans-2e" d="M 684 794 
L 1344 794 
L 1344 0 
L 684 0 
L 684 794 
z
" transform="scale(0.015625)"/>
       </defs>
       <use xlink:href="#DejaVuSans-30"/>
       <use xlink:href="#DejaVuSans-2e" transform="translate(63.623047 0)"/>
       <use xlink:href="#DejaVuSans-30" transform="translate(95.410156 0)"/>
      </g>
     </g>
    </g>
    <g id="xtick_2">
     <g id="line2d_2">
      <g>
       <use xlink:href="#m354e63005d" x="110.171379" y="418.48" style="stroke: #000000; stroke-width: 0.8"/>
      </g>
     </g>
     <g id="text_2">
      <!-- 0.5 -->
      <g transform="translate(102.219816 433.078438) scale(0.1 -0.1)">
       <defs>
        <path id="DejaVuSans-35" d="M 691 4666 
L 3169 4666 
L 3169 4134 
L 1269 4134 
L 1269 2991 
Q 1406 3038 1543 3061 
Q 1681 3084 1819 3084 
Q 2600 3084 3056 2656 
Q 3513 2228 3513 1497 
Q 3513 744 3044 326 
Q 2575 -91 1722 -91 
Q 1428 -91 1123 -41 
Q 819 9 494 109 
L 494 744 
Q 775 591 1075 516 
Q 1375 441 1709 441 
Q 2250 441 2565 725 
Q 2881 1009 2881 1497 
Q 2881 1984 2565 2268 
Q 2250 2553 1709 2553 
Q 1456 2553 1204 2497 
Q 953 2441 691 2322 
L 691 4666 
z
" transform="scale(0.015625)"/>
       </defs>
       <use xlink:href="#DejaVuSans-30"/>
       <use xlink:href="#DejaVuSans-2e" transform="translate(63.623047 0)"/>
       <use xlink:href="#DejaVuSans-35" transform="translate(95.410156 0)"/>
      </g>
     </g>
    </g>
    <g id="xtick_3">
     <g id="line2d_3">
      <g>
       <use xlink:href="#m354e63005d" x="161.914194" y="418.48" style="stroke: #000000; stroke-width: 0.8"/>
      </g>
     </g>
     <g id="text_3">
      <!-- 1.0 -->
      <g transform="translate(153.962632 433.078438) scale(0.1 -0.1)">
       <defs>
        <path id="DejaVuSans-31" d="M 794 531 
L 1825 531 
L 1825 4091 
L 703 3866 
L 703 4441 
L 1819 4666 
L 2450 4666 
L 2450 531 
L 3481 531 
L 3481 0 
L 794 0 
L 794 531 
z
" transform="scale(0.015625)"/>
       </defs>
       <use xlink:href="#DejaVuSans-31"/>
       <use xlink:href="#DejaVuSans-2e" transform="translate(63.623047 0)"/>
       <use xlink:href="#DejaVuSans-30" transform="translate(95.410156 0)"/>
      </g>
     </g>
    </g>
    <g id="xtick_4">
     <g id="line2d_4">
      <g>
       <use xlink:href="#m354e63005d" x="213.65701" y="418.48" style="stroke: #000000; stroke-width: 0.8"/>
      </g>
     </g>
     <g id="text_4">
      <!-- 1.5 -->
      <g transform="translate(205.705447 433.078438) scale(0.1 -0.1)">
       <use xlink:href="#DejaVuSans-31"/>
       <use xlink:href="#DejaVuSans-2e" transform="translate(63.623047 0)"/>
       <use xlink:href="#DejaVuSans-35" transform="translate(95.410156 0)"/>
      </g>
     </g>
    </g>
    <g id="xtick_5">
     <g id="line2d_5">
      <g>
       <use xlink:href="#m354e63005d" x="265.399825" y="418.48" style="stroke: #000000; stroke-width: 0.8"/>
      </g>
     </g>
     <g id="text_5">
      <!-- 2.0 -->
      <g transform="translate(257.448263 433.078438) scale(0.1 -0.1)">
       <defs>
        <path id="DejaVuSans-32" d="M 1228 531 
L 3431 531 
L 3431 0 
L 469 0 
L 469 531 
Q 828 903 1448 1529 
Q 2069 2156 2228 2338 
Q 2531 2678 2651 2914 
Q 2772 3150 2772 3378 
Q 2772 3750 2511 3984 
Q 2250 4219 1831 4219 
Q 1534 4219 1204 4116 
Q 875 4013 500 3803 
L 500 4441 
Q 881 4594 1212 4672 
Q 1544 4750 1819 4750 
Q 2544 4750 2975 4387 
Q 3406 4025 3406 3419 
Q 3406 3131 3298 2873 
Q 3191 2616 2906 2266 
Q 2828 2175 2409 1742 
Q 1991 1309 1228 531 
z
" transform="scale(0.015625)"/>
       </defs>
       <use xlink:href="#DejaVuSans-32"/>
       <use xlink:href="#DejaVuSans-2e" transform="translate(63.623047 0)"/>
       <use xlink:href="#DejaVuSans-30" transform="translate(95.410156 0)"/>
      </g>
     </g>
    </g>
    <g id="xtick_6">
     <g id="line2d_6">
      <g>
       <use xlink:href="#m354e63005d" x="317.142641" y="418.48" style="stroke: #000000; stroke-width: 0.8"/>
      </g>
     </g>
     <g id="text_6">
      <!-- 2.5 -->
      <g transform="translate(309.191078 433.078438) scale(0.1 -0.1)">
       <use xlink:href="#DejaVuSans-32"/>
       <use xlink:href="#DejaVuSans-2e" transform="translate(63.623047 0)"/>
       <use xlink:href="#DejaVuSans-35" transform="translate(95.410156 0)"/>
      </g>
     </g>
    </g>
    <g id="xtick_7">
     <g id="line2d_7">
      <g>
       <use xlink:href="#m354e63005d" x="368.885456" y="418.48" style="stroke: #000000; stroke-width: 0.8"/>
      </g>
     </g>
     <g id="text_7">
      <!-- 3.0 -->
      <g transform="translate(360.933894 433.078438) scale(0.1 -0.1)">
       <defs>
        <path id="DejaVuSans-33" d="M 2597 2516 
Q 3050 2419 3304 2112 
Q 3559 1806 3559 1356 
Q 3559 666 3084 287 
Q 2609 -91 1734 -91 
Q 1441 -91 1130 -33 
Q 819 25 488 141 
L 488 750 
Q 750 597 1062 519 
Q 1375 441 1716 441 
Q 2309 441 2620 675 
Q 2931 909 2931 1356 
Q 2931 1769 2642 2001 
Q 2353 2234 1838 2234 
L 1294 2234 
L 1294 2753 
L 1863 2753 
Q 2328 2753 2575 2939 
Q 2822 3125 2822 3475 
Q 2822 3834 2567 4026 
Q 2313 4219 1838 4219 
Q 1578 4219 1281 4162 
Q 984 4106 628 3988 
L 628 4550 
Q 988 4650 1302 4700 
Q 1616 4750 1894 4750 
Q 2613 4750 3031 4423 
Q 3450 4097 3450 3541 
Q 3450 3153 3228 2886 
Q 3006 2619 2597 2516 
z
" transform="scale(0.015625)"/>
       </defs>
       <use xlink:href="#DejaVuSans-33"/>
       <use xlink:href="#DejaVuSans-2e" transform="translate(63.623047 0)"/>
       <use xlink:href="#DejaVuSans-30" transform="translate(95.410156 0)"/>
      </g>
     </g>
    </g>
    <g id="xtick_8">
     <g id="line2d_8">
      <g>
       <use xlink:href="#m354e63005d" x="420.628272" y="418.48" style="stroke: #000000; stroke-width: 0.8"/>
      </g>
     </g>
     <g id="text_8">
      <!-- 3.5 -->
      <g transform="translate(412.676709 433.078438) scale(0.1 -0.1)">
       <use xlink:href="#DejaVuSans-33"/>
       <use xlink:href="#DejaVuSans-2e" transform="translate(63.623047 0)"/>
       <use xlink:href="#DejaVuSans-35" transform="translate(95.410156 0)"/>
      </g>
     </g>
    </g>
    <g id="text_9">
     <!-- |log₁₀ error|  before  (trained on naturals only) -->
     <g transform="translate(134.065 446.800313) scale(0.1 -0.1)">
      <defs>
       <path id="DejaVuSans-7c" d="M 1344 4891 
L 1344 -1509 
L 813 -1509 
L 813 4891 
L 1344 4891 
z
" transform="scale(0.015625)"/>
       <path id="DejaVuSans-6c" d="M 603 4863 
L 1178 4863 
L 1178 0 
L 603 0 
L 603 4863 
z
" transform="scale(0.015625)"/>
       <path id="DejaVuSans-6f" d="M 1959 3097 
Q 1497 3097 1228 2736 
Q 959 2375 959 1747 
Q 959 1119 1226 758 
Q 1494 397 1959 397 
Q 2419 397 2687 759 
Q 2956 1122 2956 1747 
Q 2956 2369 2687 2733 
Q 2419 3097 1959 3097 
z
M 1959 3584 
Q 2709 3584 3137 3096 
Q 3566 2609 3566 1747 
Q 3566 888 3137 398 
Q 2709 -91 1959 -91 
Q 1206 -91 779 398 
Q 353 888 353 1747 
Q 353 2609 779 3096 
Q 1206 3584 1959 3584 
z
" transform="scale(0.015625)"/>
       <path id="DejaVuSans-67" d="M 2906 1791 
Q 2906 2416 2648 2759 
Q 2391 3103 1925 3103 
Q 1463 3103 1205 2759 
Q 947 2416 947 1791 
Q 947 1169 1205 825 
Q 1463 481 1925 481 
Q 2391 481 2648 825 
Q 2906 1169 2906 1791 
z
M 3481 434 
Q 3481 -459 3084 -895 
Q 2688 -1331 1869 -1331 
Q 1566 -1331 1297 -1286 
Q 1028 -1241 775 -1147 
L 775 -588 
Q 1028 -725 1275 -790 
Q 1522 -856 1778 -856 
Q 2344 -856 2625 -561 
Q 2906 -266 2906 331 
L 2906 616 
Q 2728 306 2450 153 
Q 2172 0 1784 0 
Q 1141 0 747 490 
Q 353 981 353 1791 
Q 353 2603 747 3093 
Q 1141 3584 1784 3584 
Q 2172 3584 2450 3431 
Q 2728 3278 2906 2969 
L 2906 3500 
L 3481 3500 
L 3481 434 
z
" transform="scale(0.015625)"/>
       <path id="DejaVuSans-2081" d="M 488 319 
L 1125 319 
L 1125 2229 
L 428 2101 
L 428 2463 
L 1147 2585 
L 1575 2585 
L 1575 319 
L 2216 319 
L 2216 -24 
L 488 -24 
L 488 319 
z
" transform="scale(0.015625)"/>
       <path id="DejaVuSans-2080" d="M 1781 2091 
Q 1625 2360 1309 2360 
Q 994 2360 838 2091 
Q 678 1822 678 1285 
Q 678 744 838 476 
Q 994 207 1309 207 
Q 1625 207 1781 476 
Q 1941 744 1941 1285 
Q 1941 1822 1781 2091 
z
M 1309 2638 
Q 1813 2638 2078 2291 
Q 2344 1944 2344 1285 
Q 2344 622 2078 275 
Q 1813 -71 1309 -71 
Q 803 -71 537 275 
Q 272 622 272 1285 
Q 272 1944 537 2291 
Q 803 2638 1309 2638 
z
" transform="scale(0.015625)"/>
       <path id="DejaVuSans-20" transform="scale(0.015625)"/>
       <path id="DejaVuSans-65" d="M 3597 1894 
L 3597 1613 
L 953 1613 
Q 991 1019 1311 708 
Q 1631 397 2203 397 
Q 2534 397 2845 478 
Q 3156 559 3463 722 
L 3463 178 
Q 3153 47 2828 -22 
Q 2503 -91 2169 -91 
Q 1331 -91 842 396 
Q 353 884 353 1716 
Q 353 2575 817 3079 
Q 1281 3584 2069 3584 
Q 2775 3584 3186 3129 
Q 3597 2675 3597 1894 
z
M 3022 2063 
Q 3016 2534 2758 2815 
Q 2500 3097 2075 3097 
Q 1594 3097 1305 2825 
Q 1016 2553 972 2059 
L 3022 2063 
z
" transform="scale(0.015625)"/>
       <path id="DejaVuSans-72" d="M 2631 2963 
Q 2534 3019 2420 3045 
Q 2306 3072 2169 3072 
Q 1681 3072 1420 2755 
Q 1159 2438 1159 1844 
L 1159 0 
L 581 0 
L 581 3500 
L 1159 3500 
L 1159 2956 
Q 1341 3275 1631 3429 
Q 1922 3584 2338 3584 
Q 2397 3584 2469 3576 
Q 2541 3569 2628 3553 
L 2631 2963 
z
" transform="scale(0.015625)"/>
       <path id="DejaVuSans-62" d="M 3116 1747 
Q 3116 2381 2855 2742 
Q 2594 3103 2138 3103 
Q 1681 3103 1420 2742 
Q 1159 2381 1159 1747 
Q 1159 1113 1420 752 
Q 1681 391 2138 391 
Q 2594 391 2855 752 
Q 3116 1113 3116 1747 
z
M 1159 2969 
Q 1341 3281 1617 3432 
Q 1894 3584 2278 3584 
Q 2916 3584 3314 3078 
Q 3713 2572 3713 1747 
Q 3713 922 3314 415 
Q 2916 -91 2278 -91 
Q 1894 -91 1617 61 
Q 1341 213 1159 525 
L 1159 0 
L 581 0 
L 581 4863 
L 1159 4863 
L 1159 2969 
z
" transform="scale(0.015625)"/>
       <path id="DejaVuSans-66" d="M 2375 4863 
L 2375 4384 
L 1825 4384 
Q 1516 4384 1395 4259 
Q 1275 4134 1275 3809 
L 1275 3500 
L 2222 3500 
L 2222 3053 
L 1275 3053 
L 1275 0 
L 697 0 
L 697 3053 
L 147 3053 
L 147 3500 
L 697 3500 
L 697 3744 
Q 697 4328 969 4595 
Q 1241 4863 1831 4863 
L 2375 4863 
z
" transform="scale(0.015625)"/>
       <path id="DejaVuSans-28" d="M 1984 4856 
Q 1566 4138 1362 3434 
Q 1159 2731 1159 2009 
Q 1159 1288 1364 580 
Q 1569 -128 1984 -844 
L 1484 -844 
Q 1016 -109 783 600 
Q 550 1309 550 2009 
Q 550 2706 781 3412 
Q 1013 4119 1484 4856 
L 1984 4856 
z
" transform="scale(0.015625)"/>
       <path id="DejaVuSans-74" d="M 1172 4494 
L 1172 3500 
L 2356 3500 
L 2356 3053 
L 1172 3053 
L 1172 1153 
Q 1172 725 1289 603 
Q 1406 481 1766 481 
L 2356 481 
L 2356 0 
L 1766 0 
Q 1100 0 847 248 
Q 594 497 594 1153 
L 594 3053 
L 172 3053 
L 172 3500 
L 594 3500 
L 594 4494 
L 1172 4494 
z
" transform="scale(0.015625)"/>
       <path id="DejaVuSans-61" d="M 2194 1759 
Q 1497 1759 1228 1600 
Q 959 1441 959 1056 
Q 959 750 1161 570 
Q 1363 391 1709 391 
Q 2188 391 2477 730 
Q 2766 1069 2766 1631 
L 2766 1759 
L 2194 1759 
z
M 3341 1997 
L 3341 0 
L 2766 0 
L 2766 531 
Q 2569 213 2275 61 
Q 1981 -91 1556 -91 
Q 1019 -91 701 211 
Q 384 513 384 1019 
Q 384 1609 779 1909 
Q 1175 2209 1959 2209 
L 2766 2209 
L 2766 2266 
Q 2766 2663 2505 2880 
Q 2244 3097 1772 3097 
Q 1472 3097 1187 3025 
Q 903 2953 641 2809 
L 641 3341 
Q 956 3463 1253 3523 
Q 1550 3584 1831 3584 
Q 2591 3584 2966 3190 
Q 3341 2797 3341 1997 
z
" transform="scale(0.015625)"/>
       <path id="DejaVuSans-69" d="M 603 3500 
L 1178 3500 
L 1178 0 
L 603 0 
L 603 3500 
z
M 603 4863 
L 1178 4863 
L 1178 4134 
L 603 4134 
L 603 4863 
z
" transform="scale(0.015625)"/>
       <path id="DejaVuSans-6e" d="M 3513 2113 
L 3513 0 
L 2938 0 
L 2938 2094 
Q 2938 2591 2744 2837 
Q 2550 3084 2163 3084 
Q 1697 3084 1428 2787 
Q 1159 2491 1159 1978 
L 1159 0 
L 581 0 
L 581 3500 
L 1159 3500 
L 1159 2956 
Q 1366 3272 1645 3428 
Q 1925 3584 2291 3584 
Q 2894 3584 3203 3211 
Q 3513 2838 3513 2113 
z
" transform="scale(0.015625)"/>
       <path id="DejaVuSans-64" d="M 2906 2969 
L 2906 4863 
L 3481 4863 
L 3481 0 
L 2906 0 
L 2906 525 
Q 2725 213 2448 61 
Q 2172 -91 1784 -91 
Q 1150 -91 751 415 
Q 353 922 353 1747 
Q 353 2572 751 3078 
Q 1150 3584 1784 3584 
Q 2172 3584 2448 3432 
Q 2725 3281 2906 2969 
z
M 947 1747 
Q 947 1113 1208 752 
Q 1469 391 1925 391 
Q 2381 391 2643 752 
Q 2906 1113 2906 1747 
Q 2906 2381 2643 2742 
Q 2381 3103 1925 3103 
Q 1469 3103 1208 2742 
Q 947 2381 947 1747 
z
" transform="scale(0.015625)"/>
       <path id="DejaVuSans-75" d="M 544 1381 
L 544 3500 
L 1119 3500 
L 1119 1403 
Q 1119 906 1312 657 
Q 1506 409 1894 409 
Q 2359 409 2629 706 
Q 2900 1003 2900 1516 
L 2900 3500 
L 3475 3500 
L 3475 0 
L 2900 0 
L 2900 538 
Q 2691 219 2414 64 
Q 2138 -91 1772 -91 
Q 1169 -91 856 284 
Q 544 659 544 1381 
z
M 1991 3584 
L 1991 3584 
z
" transform="scale(0.015625)"/>
       <path id="DejaVuSans-73" d="M 2834 3397 
L 2834 2853 
Q 2591 2978 2328 3040 
Q 2066 3103 1784 3103 
Q 1356 3103 1142 2972 
Q 928 2841 928 2578 
Q 928 2378 1081 2264 
Q 1234 2150 1697 2047 
L 1894 2003 
Q 2506 1872 2764 1633 
Q 3022 1394 3022 966 
Q 3022 478 2636 193 
Q 2250 -91 1575 -91 
Q 1294 -91 989 -36 
Q 684 19 347 128 
L 347 722 
Q 666 556 975 473 
Q 1284 391 1588 391 
Q 1994 391 2212 530 
Q 2431 669 2431 922 
Q 2431 1156 2273 1281 
Q 2116 1406 1581 1522 
L 1381 1569 
Q 847 1681 609 1914 
Q 372 2147 372 2553 
Q 372 3047 722 3315 
Q 1072 3584 1716 3584 
Q 2034 3584 2315 3537 
Q 2597 3491 2834 3397 
z
" transform="scale(0.015625)"/>
       <path id="DejaVuSans-79" d="M 2059 -325 
Q 1816 -950 1584 -1140 
Q 1353 -1331 966 -1331 
L 506 -1331 
L 506 -850 
L 844 -850 
Q 1081 -850 1212 -737 
Q 1344 -625 1503 -206 
L 1606 56 
L 191 3500 
L 800 3500 
L 1894 763 
L 2988 3500 
L 3597 3500 
L 2059 -325 
z
" transform="scale(0.015625)"/>
       <path id="DejaVuSans-29" d="M 513 4856 
L 1013 4856 
Q 1481 4119 1714 3412 
Q 1947 2706 1947 2009 
Q 1947 1309 1714 600 
Q 1481 -109 1013 -844 
L 513 -844 
Q 928 -128 1133 580 
Q 1338 1288 1338 2009 
Q 1338 2731 1133 3434 
Q 928 4138 513 4856 
z
" transform="scale(0.015625)"/>
      </defs>
      <use xlink:href="#DejaVuSans-7c"/>
      <use xlink:href="#DejaVuSans-6c" transform="translate(33.691406 0)"/>
      <use xlink:href="#DejaVuSans-6f" transform="translate(61.474609 0)"/>
      <use xlink:href="#DejaVuSans-67" transform="translate(122.65625 0)"/>
      <use xlink:href="#DejaVuSans-2081" transform="translate(186.132812 0)"/>
      <use xlink:href="#DejaVuSans-2080" transform="translate(226.220703 0)"/>
      <use xlink:href="#DejaVuSans-20" transform="translate(266.308594 0)"/>
      <use xlink:href="#DejaVuSans-65" transform="translate(298.095703 0)"/>
      <use xlink:href="#DejaVuSans-72" transform="translate(359.619141 0)"/>
      <use xlink:href="#DejaVuSans-72" transform="translate(398.982422 0)"/>
      <use xlink:href="#DejaVuSans-6f" transform="translate(437.845703 0)"/>
      <use xlink:href="#DejaVuSans-72" transform="translate(499.027344 0)"/>
      <use xlink:href="#DejaVuSans-7c" transform="translate(540.140625 0)"/>
      <use xlink:href="#DejaVuSans-20" transform="translate(573.832031 0)"/>
      <use xlink:href="#DejaVuSans-20" transform="translate(605.619141 0)"/>
      <use xlink:href="#DejaVuSans-62" transform="translate(637.40625 0)"/>
      <use xlink:href="#DejaVuSans-65" transform="translate(700.882812 0)"/>
      <use xlink:href="#DejaVuSans-66" transform="translate(762.40625 0)"/>
      <use xlink:href="#DejaVuSans-6f" transform="translate(797.611328 0)"/>
      <use xlink:href="#DejaVuSans-72" transform="translate(858.792969 0)"/>
      <use xlink:href="#DejaVuSans-65" transform="translate(897.65625 0)"/>
      <use xlink:href="#DejaVuSans-20" transform="translate(959.179688 0)"/>
      <use xlink:href="#DejaVuSans-20" transform="translate(990.966797 0)"/>
      <use xlink:href="#DejaVuSans-28" transform="translate(1022.753906 0)"/>
      <use xlink:href="#DejaVuSans-74" transform="translate(1061.767578 0)"/>
      <use xlink:href="#DejaVuSans-72" transform="translate(1100.976562 0)"/>
      <use xlink:href="#DejaVuSans-61" transform="translate(1142.089844 0)"/>
      <use xlink:href="#DejaVuSans-69" transform="translate(1203.369141 0)"/>
      <use xlink:href="#DejaVuSans-6e" transform="translate(1231.152344 0)"/>
      <use xlink:href="#DejaVuSans-65" transform="translate(1294.53125 0)"/>
      <use xlink:href="#DejaVuSans-64" transform="translate(1356.054688 0)"/>
      <use xlink:href="#DejaVuSans-20" transform="translate(1419.53125 0)"/>
      <use xlink:href="#DejaVuSans-6f" transform="translate(1451.318359 0)"/>
      <use xlink:href="#DejaVuSans-6e" transform="translate(1512.5 0)"/>
      <use xlink:href="#DejaVuSans-20" transform="translate(1575.878906 0)"/>
      <use xlink:href="#DejaVuSans-6e" transform="translate(1607.666016 0)"/>
      <use xlink:href="#DejaVuSans-61" transform="translate(1671.044922 0)"/>
      <use xlink:href="#DejaVuSans-74" transform="translate(1732.324219 0)"/>
      <use xlink:href="#DejaVuSans-75" transform="translate(1771.533203 0)"/>
      <use xlink:href="#DejaVuSans-72" transform="translate(1834.912109 0)"/>
      <use xlink:href="#DejaVuSans-61" transform="translate(1876.025391 0)"/>
      <use xlink:href="#DejaVuSans-6c" transform="translate(1937.304688 0)"/>
      <use xlink:href="#DejaVuSans-73" transform="translate(1965.087891 0)"/>
      <use xlink:href="#DejaVuSans-20" transform="translate(2017.1875 0)"/>
      <use xlink:href="#DejaVuSans-6f" transform="translate(2048.974609 0)"/>
      <use xlink:href="#DejaVuSans-6e" transform="translate(2110.15625 0)"/>
      <use xlink:href="#DejaVuSans-6c" transform="translate(2173.535156 0)"/>
      <use xlink:href="#DejaVuSans-79" transform="translate(2201.318359 0)"/>
      <use xlink:href="#DejaVuSans-29" transform="translate(2260.498047 0)"/>
     </g>
    </g>
   </g>
   <g id="matplotlib.axis_2">
    <g id="ytick_1">
     <g id="line2d_9">
      <defs>
       <path id="mfa58f90fc8" d="M 0 0 
L -3.5 0 
" style="stroke: #000000; stroke-width: 0.8"/>
      </defs>
      <g>
       <use xlink:href="#mfa58f90fc8" x="48.08" y="408.641862" style="stroke: #000000; stroke-width: 0.8"/>
      </g>
     </g>
     <g id="text_10">
      <!-- 0.0 -->
      <g transform="translate(25.176875 412.44108) scale(0.1 -0.1)">
       <use xlink:href="#DejaVuSans-30"/>
       <use xlink:href="#DejaVuSans-2e" transform="translate(63.623047 0)"/>
       <use xlink:href="#DejaVuSans-30" transform="translate(95.410156 0)"/>
      </g>
     </g>
    </g>
    <g id="ytick_2">
     <g id="line2d_10">
      <g>
       <use xlink:href="#mfa58f90fc8" x="48.08" y="359.45117" style="stroke: #000000; stroke-width: 0.8"/>
      </g>
     </g>
     <g id="text_11">
      <!-- 0.5 -->
      <g transform="translate(25.176875 363.250389) scale(0.1 -0.1)">
       <use xlink:href="#DejaVuSans-30"/>
       <use xlink:href="#DejaVuSans-2e" transform="translate(63.623047 0)"/>
       <use xlink:href="#DejaVuSans-35" transform="translate(95.410156 0)"/>
      </g>
     </g>
    </g>
    <g id="ytick_3">
     <g id="line2d_11">
      <g>
       <use xlink:href="#mfa58f90fc8" x="48.08" y="310.260478" style="stroke: #000000; stroke-width: 0.8"/>
      </g>
     </g>
     <g id="text_12">
      <!-- 1.0 -->
      <g transform="translate(25.176875 314.059697) scale(0.1 -0.1)">
       <use xlink:href="#DejaVuSans-31"/>
       <use xlink:href="#DejaVuSans-2e" transform="translate(63.623047 0)"/>
       <use xlink:href="#DejaVuSans-30" transform="translate(95.410156 0)"/>
      </g>
     </g>
    </g>
    <g id="ytick_4">
     <g id="line2d_12">
      <g>
       <use xlink:href="#mfa58f90fc8" x="48.08" y="261.069786" style="stroke: #000000; stroke-width: 0.8"/>
      </g>
     </g>
     <g id="text_13">
      <!-- 1.5 -->
      <g transform="translate(25.176875 264.869005) scale(0.1 -0.1)">
       <use xlink:href="#DejaVuSans-31"/>
       <use xlink:href="#DejaVuSans-2e" transform="translate(63.623047 0)"/>
       <use xlink:href="#DejaVuSans-35" transform="translate(95.410156 0)"/>
      </g>
     </g>
    </g>
    <g id="ytick_5">
     <g id="line2d_13">
      <g>
       <use xlink:href="#mfa58f90fc8" x="48.08" y="211.879094" style="stroke: #000000; stroke-width: 0.8"/>
      </g>
     </g>
     <g id="text_14">
      <!-- 2.0 -->
      <g transform="translate(25.176875 215.678313) scale(0.1 -0.1)">
       <use xlink:href="#DejaVuSans-32"/>
       <use xlink:href="#DejaVuSans-2e" transform="translate(63.623047 0)"/>
       <use xlink:href="#DejaVuSans-30" transform="translate(95.410156 0)"/>
      </g>
     </g>
    </g>
    <g id="ytick_6">
     <g id="line2d_14">
      <g>
       <use xlink:href="#mfa58f90fc8" x="48.08" y="162.688403" style="stroke: #000000; stroke-width: 0.8"/>
      </g>
     </g>
     <g id="text_15">
      <!-- 2.5 -->
      <g transform="translate(25.176875 166.487621) scale(0.1 -0.1)">
       <use xlink:href="#DejaVuSans-32"/>
       <use xlink:href="#DejaVuSans-2e" transform="translate(63.623047 0)"/>
       <use xlink:href="#DejaVuSans-35" transform="translate(95.410156 0)"/>
      </g>
     </g>
    </g>
    <g id="ytick_7">
     <g id="line2d_15">
      <g>
       <use xlink:href="#mfa58f90fc8" x="48.08" y="113.497711" style="stroke: #000000; stroke-width: 0.8"/>
      </g>
     </g>
     <g id="text_16">
      <!-- 3.0 -->
      <g transform="translate(25.176875 117.29693) scale(0.1 -0.1)">
       <use xlink:href="#DejaVuSans-33"/>
       <use xlink:href="#DejaVuSans-2e" transform="translate(63.623047 0)"/>
       <use xlink:href="#DejaVuSans-30" transform="translate(95.410156 0)"/>
      </g>
     </g>
    </g>
    <g id="ytick_8">
     <g id="line2d_16">
      <g>
       <use xlink:href="#mfa58f90fc8" x="48.08" y="64.307019" style="stroke: #000000; stroke-width: 0.8"/>
      </g>
     </g>
     <g id="text_17">
      <!-- 3.5 -->
      <g transform="translate(25.176875 68.106238) scale(0.1 -0.1)">
       <use xlink:href="#DejaVuSans-33"/>
       <use xlink:href="#DejaVuSans-2e" transform="translate(63.623047 0)"/>
       <use xlink:href="#DejaVuSans-35" transform="translate(95.410156 0)"/>
      </g>
     </g>
    </g>
    <g id="text_18">
     <!-- |log₁₀ error|  after  (+ outlier in training) -->
     <g transform="translate(18.819063 327.193719) rotate(-90) scale(0.1 -0.1)">
      <defs>
       <path id="DejaVuSans-2b" d="M 2944 4013 
L 2944 2272 
L 4684 2272 
L 4684 1741 
L 2944 1741 
L 2944 0 
L 2419 0 
L 2419 1741 
L 678 1741 
L 678 2272 
L 2419 2272 
L 2419 4013 
L 2944 4013 
z
" transform="scale(0.015625)"/>
      </defs>
      <use xlink:href="#DejaVuSans-7c"/>
      <use xlink:href="#DejaVuSans-6c" transform="translate(33.691406 0)"/>
      <use xlink:href="#DejaVuSans-6f" transform="translate(61.474609 0)"/>
      <use xlink:href="#DejaVuSans-67" transform="translate(122.65625 0)"/>
      <use xlink:href="#DejaVuSans-2081" transform="translate(186.132812 0)"/>
      <use xlink:href="#DejaVuSans-2080" transform="translate(226.220703 0)"/>
      <use xlink:href="#DejaVuSans-20" transform="translate(266.308594 0)"/>
      <use xlink:href="#DejaVuSans-65" transform="translate(298.095703 0)"/>
      <use xlink:href="#DejaVuSans-72" transform="translate(359.619141 0)"/>
      <use xlink:href="#DejaVuSans-72" transform="translate(398.982422 0)"/>
      <use xlink:href="#DejaVuSans-6f" transform="translate(437.845703 0)"/>
      <use xlink:href="#DejaVuSans-72" transform="translate(499.027344 0)"/>
      <use xlink:href="#DejaVuSans-7c" transform="translate(540.140625 0)"/>
      <use xlink:href="#DejaVuSans-20" transform="translate(573.832031 0)"/>
      <use xlink:href="#DejaVuSans-20" transform="translate(605.619141 0)"/>
      <use xlink:href="#DejaVuSans-61" transform="translate(637.40625 0)"/>
      <use xlink:href="#DejaVuSans-66" transform="translate(698.685547 0)"/>
      <use xlink:href="#DejaVuSans-74" transform="translate(732.140625 0)"/>
      <use xlink:href="#DejaVuSans-65" transform="translate(771.349609 0)"/>
      <use xlink:href="#DejaVuSans-72" transform="translate(832.873047 0)"/>
      <use xlink:href="#DejaVuSans-20" transform="translate(873.986328 0)"/>
      <use xlink:href="#DejaVuSans-20" transform="translate(905.773438 0)"/>
      <use xlink:href="#DejaVuSans-28" transform="translate(937.560547 0)"/>
      <use xlink:href="#DejaVuSans-2b" transform="translate(976.574219 0)"/>
      <use xlink:href="#DejaVuSans-20" transform="translate(1060.363281 0)"/>
      <use xlink:href="#DejaVuSans-6f" transform="translate(1092.150391 0)"/>
      <use xlink:href="#DejaVuSans-75" transform="translate(1153.332031 0)"/>
      <use xlink:href="#DejaVuSans-74" transform="translate(1216.710938 0)"/>
      <use xlink:href="#DejaVuSans-6c" transform="translate(1255.919922 0)"/>
      <use xlink:href="#DejaVuSans-69" transform="translate(1283.703125 0)"/>
      <use xlink:href="#DejaVuSans-65" transform="translate(1311.486328 0)"/>
      <use xlink:href="#DejaVuSans-72" transform="translate(1373.009766 0)"/>
      <use xlink:href="#DejaVuSans-20" transform="translate(1414.123047 0)"/>
      <use xlink:href="#DejaVuSans-69" transform="translate(1445.910156 0)"/>
      <use xlink:href="#DejaVuSans-6e" transform="translate(1473.693359 0)"/>
      <use xlink:href="#DejaVuSans-20" transform="translate(1537.072266 0)"/>
      <use xlink:href="#DejaVuSans-74" transform="translate(1568.859375 0)"/>
      <use xlink:href="#DejaVuSans-72" transform="translate(1608.068359 0)"/>
      <use xlink:href="#DejaVuSans-61" transform="translate(1649.181641 0)"/>
      <use xlink:href="#DejaVuSans-69" transform="translate(1710.460938 0)"/>
      <use xlink:href="#DejaVuSans-6e" transform="translate(1738.244141 0)"/>
      <use xlink:href="#DejaVuSans-69" transform="translate(1801.623047 0)"/>
      <use xlink:href="#DejaVuSans-6e" transform="translate(1829.40625 0)"/>
      <use xlink:href="#DejaVuSans-67" transform="translate(1892.785156 0)"/>
      <use xlink:href="#DejaVuSans-29" transform="translate(1956.261719 0)"/>
     </g>
    </g>
   </g>
   <g id="line2d_17">
    <path d="M 58.428563 408.641862 
L 450 36.384 
" clip-path="url(#p62d0c01049)" style="fill: none; stroke-dasharray: 3.7,1.6; stroke-dashoffset: 0; stroke: #999999"/>
   </g>
   <g id="patch_3">
    <path d="M 48.08 418.48 
L 48.08 36.384 
" style="fill: none; stroke: #000000; stroke-width: 0.8; stroke-linejoin: miter; stroke-linecap: square"/>
   </g>
   <g id="patch_4">
    <path d="M 48.08 418.48 
L 450 418.48 
" style="fill: none; stroke: #000000; stroke-width: 0.8; stroke-linejoin: miter; stroke-linecap: square"/>
   </g>
   <g id="PathCollection_1">
    <defs>
     <path id="m1f449500c1" d="M 0 3.708099 
C 0.983399 3.708099 1.926654 3.317391 2.622022 2.622022 
C 3.317391 1.926654 3.708099 0.983399 3.708099 0 
C 3.708099 -0.983399 3.317391 -1.926654 2.622022 -2.622022 
C 1.926654 -3.317391 0.983399 -3.708099 0 -3.708099 
C -0.983399 -3.708099 -1.926654 -3.317391 -2.622022 -2.622022 
C -3.317391 -1.926654 -3.708099 -0.983399 -3.708099 0 
C -3.708099 0.983399 -3.317391 1.926654 -2.622022 2.622022 
C -1.926654 3.317391 -0.983399 3.708099 0 3.708099 
z
" style="stroke: #ffffff; stroke-width: 0.8"/>
    </defs>
    <g clip-path="url(#p62d0c01049)">
     <use xlink:href="#m1f449500c1" x="175.218562" y="295.513934" style="fill: #2e5a8f; stroke: #ffffff; stroke-width: 0.8"/>
    </g>
   </g>
   <g id="PathCollection_2">
    <g clip-path="url(#p62d0c01049)">
     <use xlink:href="#m1f449500c1" x="63.258116" y="377.875544" style="fill: #2e5a8f; stroke: #ffffff; stroke-width: 0.8"/>
    </g>
   </g>
   <g id="PathCollection_3">
    <g clip-path="url(#p62d0c01049)">
     <use xlink:href="#m1f449500c1" x="77.733586" y="367.577266" style="fill: #2e5a8f; stroke: #ffffff; stroke-width: 0.8"/>
    </g>
   </g>
   <g id="PathCollection_4">
    <g clip-path="url(#p62d0c01049)">
     <use xlink:href="#m1f449500c1" x="84.67755" y="337.134864" style="fill: #2e5a8f; stroke: #ffffff; stroke-width: 0.8"/>
    </g>
   </g>
   <g id="text_19">
    <!-- 4-Methoxyp -->
    <g style="fill: #444444" transform="translate(90.67755 334.134864) scale(0.075 -0.075)">
     <defs>
      <path id="DejaVuSans-34" d="M 2419 4116 
L 825 1625 
L 2419 1625 
L 2419 4116 
z
M 2253 4666 
L 3047 4666 
L 3047 1625 
L 3713 1625 
L 3713 1100 
L 3047 1100 
L 3047 0 
L 2419 0 
L 2419 1100 
L 313 1100 
L 313 1709 
L 2253 4666 
z
" transform="scale(0.015625)"/>
      <path id="DejaVuSans-2d" d="M 313 2009 
L 1997 2009 
L 1997 1497 
L 313 1497 
L 313 2009 
z
" transform="scale(0.015625)"/>
      <path id="DejaVuSans-4d" d="M 628 4666 
L 1569 4666 
L 2759 1491 
L 3956 4666 
L 4897 4666 
L 4897 0 
L 4281 0 
L 4281 4097 
L 3078 897 
L 2444 897 
L 1241 4097 
L 1241 0 
L 628 0 
L 628 4666 
z
" transform="scale(0.015625)"/>
      <path id="DejaVuSans-68" d="M 3513 2113 
L 3513 0 
L 2938 0 
L 2938 2094 
Q 2938 2591 2744 2837 
Q 2550 3084 2163 3084 
Q 1697 3084 1428 2787 
Q 1159 2491 1159 1978 
L 1159 0 
L 581 0 
L 581 4863 
L 1159 4863 
L 1159 2956 
Q 1366 3272 1645 3428 
Q 1925 3584 2291 3584 
Q 2894 3584 3203 3211 
Q 3513 2838 3513 2113 
z
" transform="scale(0.015625)"/>
      <path id="DejaVuSans-78" d="M 3513 3500 
L 2247 1797 
L 3578 0 
L 2900 0 
L 1881 1375 
L 863 0 
L 184 0 
L 1544 1831 
L 300 3500 
L 978 3500 
L 1906 2253 
L 2834 3500 
L 3513 3500 
z
" transform="scale(0.015625)"/>
      <path id="DejaVuSans-70" d="M 1159 525 
L 1159 -1331 
L 581 -1331 
L 581 3500 
L 1159 3500 
L 1159 2969 
Q 1341 3281 1617 3432 
Q 1894 3584 2278 3584 
Q 2916 3584 3314 3078 
Q 3713 2572 3713 1747 
Q 3713 922 3314 415 
Q 2916 -91 2278 -91 
Q 1894 -91 1617 61 
Q 1341 213 1159 525 
z
M 3116 1747 
Q 3116 2381 2855 2742 
Q 2594 3103 2138 3103 
Q 1681 3103 1420 2742 
Q 1159 2381 1159 1747 
Q 1159 1113 1420 752 
Q 1681 391 2138 391 
Q 2594 391 2855 752 
Q 3116 1113 3116 1747 
z
" transform="scale(0.015625)"/>
     </defs>
     <use xlink:href="#DejaVuSans-34"/>
     <use xlink:href="#DejaVuSans-2d" transform="translate(63.623047 0)"/>
     <use xlink:href="#DejaVuSans-4d" transform="translate(99.707031 0)"/>
     <use xlink:href="#DejaVuSans-65" transform="translate(185.986328 0)"/>
     <use xlink:href="#DejaVuSans-74" transform="translate(247.509766 0)"/>
     <use xlink:href="#DejaVuSans-68" transform="translate(286.71875 0)"/>
     <use xlink:href="#DejaVuSans-6f" transform="translate(350.097656 0)"/>
     <use xlink:href="#DejaVuSans-78" transform="translate(408.154297 0)"/>
     <use xlink:href="#DejaVuSans-79" transform="translate(467.333984 0)"/>
     <use xlink:href="#DejaVuSans-70" transform="translate(526.513672 0)"/>
    </g>
   </g>
   <g id="PathCollection_5">
    <g clip-path="url(#p62d0c01049)">
     <use xlink:href="#m1f449500c1" x="89.408061" y="375.752152" style="fill: #2e5a8f; stroke: #ffffff; stroke-width: 0.8"/>
    </g>
   </g>
   <g id="PathCollection_6">
    <g clip-path="url(#p62d0c01049)">
     <use xlink:href="#m1f449500c1" x="100.735855" y="388.573791" style="fill: #2e5a8f; stroke: #ffffff; stroke-width: 0.8"/>
    </g>
   </g>
   <g id="PathCollection_7">
    <g clip-path="url(#p62d0c01049)">
     <use xlink:href="#m1f449500c1" x="118.215232" y="361.080833" style="fill: #2e5a8f; stroke: #ffffff; stroke-width: 0.8"/>
    </g>
   </g>
   <g id="PathCollection_8">
    <g clip-path="url(#p62d0c01049)">
     <use xlink:href="#m1f449500c1" x="117.324713" y="352.650662" style="fill: #2e5a8f; stroke: #ffffff; stroke-width: 0.8"/>
    </g>
   </g>
   <g id="PathCollection_9">
    <g clip-path="url(#p62d0c01049)">
     <use xlink:href="#m1f449500c1" x="122.68143" y="347.558154" style="fill: #2e5a8f; stroke: #ffffff; stroke-width: 0.8"/>
    </g>
   </g>
   <g id="PathCollection_10">
    <g clip-path="url(#p62d0c01049)">
     <use xlink:href="#m1f449500c1" x="188.249129" y="311.87834" style="fill: #2e5a8f; stroke: #ffffff; stroke-width: 0.8"/>
    </g>
   </g>
   <g id="PathCollection_11">
    <g clip-path="url(#p62d0c01049)">
     <use xlink:href="#m1f449500c1" x="128.007787" y="404.421277" style="fill: #2e5a8f; stroke: #ffffff; stroke-width: 0.8"/>
    </g>
   </g>
   <g id="text_20">
    <!-- Norvaline -->
    <g style="fill: #444444" transform="translate(134.007787 401.421277) scale(0.075 -0.075)">
     <defs>
      <path id="DejaVuSans-4e" d="M 628 4666 
L 1478 4666 
L 3547 763 
L 3547 4666 
L 4159 4666 
L 4159 0 
L 3309 0 
L 1241 3903 
L 1241 0 
L 628 0 
L 628 4666 
z
" transform="scale(0.015625)"/>
      <path id="DejaVuSans-76" d="M 191 3500 
L 800 3500 
L 1894 563 
L 2988 3500 
L 3597 3500 
L 2284 0 
L 1503 0 
L 191 3500 
z
" transform="scale(0.015625)"/>
     </defs>
     <use xlink:href="#DejaVuSans-4e"/>
     <use xlink:href="#DejaVuSans-6f" transform="translate(74.804688 0)"/>
     <use xlink:href="#DejaVuSans-72" transform="translate(135.986328 0)"/>
     <use xlink:href="#DejaVuSans-76" transform="translate(177.099609 0)"/>
     <use xlink:href="#DejaVuSans-61" transform="translate(236.279297 0)"/>
     <use xlink:href="#DejaVuSans-6c" transform="translate(297.558594 0)"/>
     <use xlink:href="#DejaVuSans-69" transform="translate(325.341797 0)"/>
     <use xlink:href="#DejaVuSans-6e" transform="translate(353.125 0)"/>
     <use xlink:href="#DejaVuSans-65" transform="translate(416.503906 0)"/>
    </g>
   </g>
   <g id="PathCollection_12">
    <g clip-path="url(#p62d0c01049)">
     <use xlink:href="#m1f449500c1" x="249.971077" y="259.142562" style="fill: #2e5a8f; stroke: #ffffff; stroke-width: 0.8"/>
    </g>
   </g>
   <g id="text_21">
    <!-- Norleucine -->
    <g style="fill: #444444" transform="translate(255.971077 256.142562) scale(0.075 -0.075)">
     <defs>
      <path id="DejaVuSans-63" d="M 3122 3366 
L 3122 2828 
Q 2878 2963 2633 3030 
Q 2388 3097 2138 3097 
Q 1578 3097 1268 2742 
Q 959 2388 959 1747 
Q 959 1106 1268 751 
Q 1578 397 2138 397 
Q 2388 397 2633 464 
Q 2878 531 3122 666 
L 3122 134 
Q 2881 22 2623 -34 
Q 2366 -91 2075 -91 
Q 1284 -91 818 406 
Q 353 903 353 1747 
Q 353 2603 823 3093 
Q 1294 3584 2113 3584 
Q 2378 3584 2631 3529 
Q 2884 3475 3122 3366 
z
" transform="scale(0.015625)"/>
     </defs>
     <use xlink:href="#DejaVuSans-4e"/>
     <use xlink:href="#DejaVuSans-6f" transform="translate(74.804688 0)"/>
     <use xlink:href="#DejaVuSans-72" transform="translate(135.986328 0)"/>
     <use xlink:href="#DejaVuSans-6c" transform="translate(177.099609 0)"/>
     <use xlink:href="#DejaVuSans-65" transform="translate(204.882812 0)"/>
     <use xlink:href="#DejaVuSans-75" transform="translate(266.40625 0)"/>
     <use xlink:href="#DejaVuSans-63" transform="translate(329.785156 0)"/>
     <use xlink:href="#DejaVuSans-69" transform="translate(384.765625 0)"/>
     <use xlink:href="#DejaVuSans-6e" transform="translate(412.548828 0)"/>
     <use xlink:href="#DejaVuSans-65" transform="translate(475.927734 0)"/>
    </g>
   </g>
   <g id="PathCollection_13">
    <defs>
     <path id="m6330cf4e0f" d="M 0 4.743416 
C 1.257969 4.743416 2.464584 4.24362 3.354102 3.354102 
C 4.24362 2.464584 4.743416 1.257969 4.743416 0 
C 4.743416 -1.257969 4.24362 -2.464584 3.354102 -3.354102 
C 2.464584 -4.24362 1.257969 -4.743416 0 -4.743416 
C -1.257969 -4.743416 -2.464584 -4.24362 -3.354102 -3.354102 
C -4.24362 -2.464584 -4.743416 -1.257969 -4.743416 0 
C -4.743416 1.257969 -4.24362 2.464584 -3.354102 3.354102 
C -2.464584 4.24362 -1.257969 4.743416 0 4.743416 
z
" style="stroke: #ffffff; stroke-width: 0.8"/>
    </defs>
    <g clip-path="url(#p62d0c01049)">
     <use xlink:href="#m6330cf4e0f" x="364.343748" y="408.641862" style="fill: #c0603a; stroke: #ffffff; stroke-width: 0.8"/>
    </g>
   </g>
   <g id="text_22">
    <!-- 2-Aminooct -->
    <g style="fill: #444444" transform="translate(370.343748 405.641862) scale(0.075 -0.075)">
     <defs>
      <path id="DejaVuSans-41" d="M 2188 4044 
L 1331 1722 
L 3047 1722 
L 2188 4044 
z
M 1831 4666 
L 2547 4666 
L 4325 0 
L 3669 0 
L 3244 1197 
L 1141 1197 
L 716 0 
L 50 0 
L 1831 4666 
z
" transform="scale(0.015625)"/>
      <path id="DejaVuSans-6d" d="M 3328 2828 
Q 3544 3216 3844 3400 
Q 4144 3584 4550 3584 
Q 5097 3584 5394 3201 
Q 5691 2819 5691 2113 
L 5691 0 
L 5113 0 
L 5113 2094 
Q 5113 2597 4934 2840 
Q 4756 3084 4391 3084 
Q 3944 3084 3684 2787 
Q 3425 2491 3425 1978 
L 3425 0 
L 2847 0 
L 2847 2094 
Q 2847 2600 2669 2842 
Q 2491 3084 2119 3084 
Q 1678 3084 1418 2786 
Q 1159 2488 1159 1978 
L 1159 0 
L 581 0 
L 581 3500 
L 1159 3500 
L 1159 2956 
Q 1356 3278 1631 3431 
Q 1906 3584 2284 3584 
Q 2666 3584 2933 3390 
Q 3200 3197 3328 2828 
z
" transform="scale(0.015625)"/>
     </defs>
     <use xlink:href="#DejaVuSans-32"/>
     <use xlink:href="#DejaVuSans-2d" transform="translate(63.623047 0)"/>
     <use xlink:href="#DejaVuSans-41" transform="translate(97.457031 0)"/>
     <use xlink:href="#DejaVuSans-6d" transform="translate(165.865234 0)"/>
     <use xlink:href="#DejaVuSans-69" transform="translate(263.277344 0)"/>
     <use xlink:href="#DejaVuSans-6e" transform="translate(291.060547 0)"/>
     <use xlink:href="#DejaVuSans-6f" transform="translate(354.439453 0)"/>
     <use xlink:href="#DejaVuSans-6f" transform="translate(415.621094 0)"/>
     <use xlink:href="#DejaVuSans-63" transform="translate(476.802734 0)"/>
     <use xlink:href="#DejaVuSans-74" transform="translate(531.783203 0)"/>
    </g>
   </g>
   <g id="PathCollection_14">
    <g clip-path="url(#p62d0c01049)">
     <use xlink:href="#m1f449500c1" x="210.53852" y="350.217847" style="fill: #2e5a8f; stroke: #ffffff; stroke-width: 0.8"/>
    </g>
   </g>
   <g id="text_23">
    <!-- CHA -->
    <g style="fill: #444444" transform="translate(216.53852 347.217847) scale(0.075 -0.075)">
     <defs>
      <path id="DejaVuSans-43" d="M 4122 4306 
L 4122 3641 
Q 3803 3938 3442 4084 
Q 3081 4231 2675 4231 
Q 1875 4231 1450 3742 
Q 1025 3253 1025 2328 
Q 1025 1406 1450 917 
Q 1875 428 2675 428 
Q 3081 428 3442 575 
Q 3803 722 4122 1019 
L 4122 359 
Q 3791 134 3420 21 
Q 3050 -91 2638 -91 
Q 1578 -91 968 557 
Q 359 1206 359 2328 
Q 359 3453 968 4101 
Q 1578 4750 2638 4750 
Q 3056 4750 3426 4639 
Q 3797 4528 4122 4306 
z
" transform="scale(0.015625)"/>
      <path id="DejaVuSans-48" d="M 628 4666 
L 1259 4666 
L 1259 2753 
L 3553 2753 
L 3553 4666 
L 4184 4666 
L 4184 0 
L 3553 0 
L 3553 2222 
L 1259 2222 
L 1259 0 
L 628 0 
L 628 4666 
z
" transform="scale(0.015625)"/>
     </defs>
     <use xlink:href="#DejaVuSans-43"/>
     <use xlink:href="#DejaVuSans-48" transform="translate(69.824219 0)"/>
     <use xlink:href="#DejaVuSans-41" transform="translate(145.019531 0)"/>
    </g>
   </g>
   <g id="text_24">
    <!-- erosion zone -->
    <g style="fill: #c0603a; opacity: 0.7" transform="translate(273.792853 73.609786) scale(0.085 -0.085)">
     <defs>
      <path id="DejaVuSans-7a" d="M 353 3500 
L 3084 3500 
L 3084 2975 
L 922 459 
L 3084 459 
L 3084 0 
L 275 0 
L 275 525 
L 2438 3041 
L 353 3041 
L 353 3500 
z
" transform="scale(0.015625)"/>
     </defs>
     <use xlink:href="#DejaVuSans-65"/>
     <use xlink:href="#DejaVuSans-72" transform="translate(61.523438 0)"/>
     <use xlink:href="#DejaVuSans-6f" transform="translate(100.386719 0)"/>
     <use xlink:href="#DejaVuSans-73" transform="translate(161.568359 0)"/>
     <use xlink:href="#DejaVuSans-69" transform="translate(213.667969 0)"/>
     <use xlink:href="#DejaVuSans-6f" transform="translate(241.451172 0)"/>
     <use xlink:href="#DejaVuSans-6e" transform="translate(302.632812 0)"/>
     <use xlink:href="#DejaVuSans-20" transform="translate(366.011719 0)"/>
     <use xlink:href="#DejaVuSans-7a" transform="translate(397.798828 0)"/>
     <use xlink:href="#DejaVuSans-6f" transform="translate(450.289062 0)"/>
     <use xlink:href="#DejaVuSans-6e" transform="translate(511.470703 0)"/>
     <use xlink:href="#DejaVuSans-65" transform="translate(574.849609 0)"/>
    </g>
   </g>
   <g id="text_25">
    <!-- Does adding the outlier erode the model? -->
    <g transform="translate(144.707969 19.186188) scale(0.1 -0.1)">
     <defs>
      <path id="DejaVuSans-44" d="M 1259 4147 
L 1259 519 
L 2022 519 
Q 2988 519 3436 956 
Q 3884 1394 3884 2338 
Q 3884 3275 3436 3711 
Q 2988 4147 2022 4147 
L 1259 4147 
z
M 628 4666 
L 1925 4666 
Q 3281 4666 3915 4102 
Q 4550 3538 4550 2338 
Q 4550 1131 3912 565 
Q 3275 0 1925 0 
L 628 0 
L 628 4666 
z
" transform="scale(0.015625)"/>
      <path id="DejaVuSans-3f" d="M 1222 794 
L 1856 794 
L 1856 0 
L 1222 0 
L 1222 794 
z
M 1838 1253 
L 1241 1253 
L 1241 1734 
Q 1241 2050 1328 2253 
Q 1416 2456 1697 2725 
L 1978 3003 
Q 2156 3169 2236 3316 
Q 2316 3463 2316 3616 
Q 2316 3894 2111 4066 
Q 1906 4238 1569 4238 
Q 1322 4238 1042 4128 
Q 763 4019 459 3809 
L 459 4397 
Q 753 4575 1054 4662 
Q 1356 4750 1678 4750 
Q 2253 4750 2601 4447 
Q 2950 4144 2950 3647 
Q 2950 3409 2837 3195 
Q 2725 2981 2444 2713 
L 2169 2444 
Q 2022 2297 1961 2214 
Q 1900 2131 1875 2053 
Q 1856 1988 1847 1894 
Q 1838 1800 1838 1638 
L 1838 1253 
z
" transform="scale(0.015625)"/>
     </defs>
     <use xlink:href="#DejaVuSans-44"/>
     <use xlink:href="#DejaVuSans-6f" transform="translate(77.001953 0)"/>
     <use xlink:href="#DejaVuSans-65" transform="translate(138.183594 0)"/>
     <use xlink:href="#DejaVuSans-73" transform="translate(199.707031 0)"/>
     <use xlink:href="#DejaVuSans-20" transform="translate(251.806641 0)"/>
     <use xlink:href="#DejaVuSans-61" transform="translate(283.59375 0)"/>
     <use xlink:href="#DejaVuSans-64" transform="translate(344.873047 0)"/>
     <use xlink:href="#DejaVuSans-64" transform="translate(408.349609 0)"/>
     <use xlink:href="#DejaVuSans-69" transform="translate(471.826172 0)"/>
     <use xlink:href="#DejaVuSans-6e" transform="translate(499.609375 0)"/>
     <use xlink:href="#DejaVuSans-67" transform="translate(562.988281 0)"/>
     <use xlink:href="#DejaVuSans-20" transform="translate(626.464844 0)"/>
     <use xlink:href="#DejaVuSans-74" transform="translate(658.251953 0)"/>
     <use xlink:href="#DejaVuSans-68" transform="translate(697.460938 0)"/>
     <use xlink:href="#DejaVuSans-65" transform="translate(760.839844 0)"/>
     <use xlink:href="#DejaVuSans-20" transform="translate(822.363281 0)"/>
     <use xlink:href="#DejaVuSans-6f" transform="translate(854.150391 0)"/>
     <use xlink:href="#DejaVuSans-75" transform="translate(915.332031 0)"/>
     <use xlink:href="#DejaVuSans-74" transform="translate(978.710938 0)"/>
     <use xlink:href="#DejaVuSans-6c" transform="translate(1017.919922 0)"/>
     <use xlink:href="#DejaVuSans-69" transform="translate(1045.703125 0)"/>
     <use xlink:href="#DejaVuSans-65" transform="translate(1073.486328 0)"/>
     <use xlink:href="#DejaVuSans-72" transform="translate(1135.009766 0)"/>
     <use xlink:href="#DejaVuSans-20" transform="translate(1176.123047 0)"/>
     <use xlink:href="#DejaVuSans-65" transform="translate(1207.910156 0)"/>
     <use xlink:href="#DejaVuSans-72" transform="translate(1269.433594 0)"/>
     <use xlink:href="#DejaVuSans-6f" transform="translate(1308.296875 0)"/>
     <use xlink:href="#DejaVuSans-64" transform="translate(1369.478516 0)"/>
     <use xlink:href="#DejaVuSans-65" transform="translate(1432.955078 0)"/>
     <use xlink:href="#DejaVuSans-20" transform="translate(1494.478516 0)"/>
     <use xlink:href="#DejaVuSans-74" transform="translate(1526.265625 0)"/>
     <use xlink:href="#DejaVuSans-68" transform="translate(1565.474609 0)"/>
     <use xlink:href="#DejaVuSans-65" transform="translate(1628.853516 0)"/>
     <use xlink:href="#DejaVuSans-20" transform="translate(1690.376953 0)"/>
     <use xlink:href="#DejaVuSans-6d" transform="translate(1722.164062 0)"/>
     <use xlink:href="#DejaVuSans-6f" transform="translate(1819.576172 0)"/>
     <use xlink:href="#DejaVuSans-64" transform="translate(1880.757812 0)"/>
     <use xlink:href="#DejaVuSans-65" transform="translate(1944.234375 0)"/>
     <use xlink:href="#DejaVuSans-6c" transform="translate(2005.757812 0)"/>
     <use xlink:href="#DejaVuSans-3f" transform="translate(2033.541016 0)"/>
    </g>
    <!-- points above the diagonal = worse;  on it = unchanged -->
    <g transform="translate(110.331406 30.384) scale(0.1 -0.1)">
     <defs>
      <path id="DejaVuSans-3d" d="M 678 2906 
L 4684 2906 
L 4684 2381 
L 678 2381 
L 678 2906 
z
M 678 1631 
L 4684 1631 
L 4684 1100 
L 678 1100 
L 678 1631 
z
" transform="scale(0.015625)"/>
      <path id="DejaVuSans-77" d="M 269 3500 
L 844 3500 
L 1563 769 
L 2278 3500 
L 2956 3500 
L 3675 769 
L 4391 3500 
L 4966 3500 
L 4050 0 
L 3372 0 
L 2619 2869 
L 1863 0 
L 1184 0 
L 269 3500 
z
" transform="scale(0.015625)"/>
      <path id="DejaVuSans-3b" d="M 750 3309 
L 1409 3309 
L 1409 2516 
L 750 2516 
L 750 3309 
z
M 750 794 
L 1409 794 
L 1409 256 
L 897 -744 
L 494 -744 
L 750 256 
L 750 794 
z
" transform="scale(0.015625)"/>
     </defs>
     <use xlink:href="#DejaVuSans-70"/>
     <use xlink:href="#DejaVuSans-6f" transform="translate(63.476562 0)"/>
     <use xlink:href="#DejaVuSans-69" transform="translate(124.658203 0)"/>
     <use xlink:href="#DejaVuSans-6e" transform="translate(152.441406 0)"/>
     <use xlink:href="#DejaVuSans-74" transform="translate(215.820312 0)"/>
     <use xlink:href="#DejaVuSans-73" transform="translate(255.029297 0)"/>
     <use xlink:href="#DejaVuSans-20" transform="translate(307.128906 0)"/>
     <use xlink:href="#DejaVuSans-61" transform="translate(338.916016 0)"/>
     <use xlink:href="#DejaVuSans-62" transform="translate(400.195312 0)"/>
     <use xlink:href="#DejaVuSans-6f" transform="translate(463.671875 0)"/>
     <use xlink:href="#DejaVuSans-76" transform="translate(524.853516 0)"/>
     <use xlink:href="#DejaVuSans-65" transform="translate(584.033203 0)"/>
     <use xlink:href="#DejaVuSans-20" transform="translate(645.556641 0)"/>
     <use xlink:href="#DejaVuSans-74" transform="translate(677.34375 0)"/>
     <use xlink:href="#DejaVuSans-68" transform="translate(716.552734 0)"/>
     <use xlink:href="#DejaVuSans-65" transform="translate(779.931641 0)"/>
     <use xlink:href="#DejaVuSans-20" transform="translate(841.455078 0)"/>
     <use xlink:href="#DejaVuSans-64" transform="translate(873.242188 0)"/>
     <use xlink:href="#DejaVuSans-69" transform="translate(936.71875 0)"/>
     <use xlink:href="#DejaVuSans-61" transform="translate(964.501953 0)"/>
     <use xlink:href="#DejaVuSans-67" transform="translate(1025.78125 0)"/>
     <use xlink:href="#DejaVuSans-6f" transform="translate(1089.257812 0)"/>
     <use xlink:href="#DejaVuSans-6e" transform="translate(1150.439453 0)"/>
     <use xlink:href="#DejaVuSans-61" transform="translate(1213.818359 0)"/>
     <use xlink:href="#DejaVuSans-6c" transform="translate(1275.097656 0)"/>
     <use xlink:href="#DejaVuSans-20" transform="translate(1302.880859 0)"/>
     <use xlink:href="#DejaVuSans-3d" transform="translate(1334.667969 0)"/>
     <use xlink:href="#DejaVuSans-20" transform="translate(1418.457031 0)"/>
     <use xlink:href="#DejaVuSans-77" transform="translate(1450.244141 0)"/>
     <use xlink:href="#DejaVuSans-6f" transform="translate(1532.03125 0)"/>
     <use xlink:href="#DejaVuSans-72" transform="translate(1593.212891 0)"/>
     <use xlink:href="#DejaVuSans-73" transform="translate(1634.326172 0)"/>
     <use xlink:href="#DejaVuSans-65" transform="translate(1686.425781 0)"/>
     <use xlink:href="#DejaVuSans-3b" transform="translate(1747.949219 0)"/>
     <use xlink:href="#DejaVuSans-20" transform="translate(1781.640625 0)"/>
     <use xlink:href="#DejaVuSans-20" transform="translate(1813.427734 0)"/>
     <use xlink:href="#DejaVuSans-6f" transform="translate(1845.214844 0)"/>
     <use xlink:href="#DejaVuSans-6e" transform="translate(1906.396484 0)"/>
     <use xlink:href="#DejaVuSans-20" transform="translate(1969.775391 0)"/>
     <use xlink:href="#DejaVuSans-69" transform="translate(2001.5625 0)"/>
     <use xlink:href="#DejaVuSans-74" transform="translate(2029.345703 0)"/>
     <use xlink:href="#DejaVuSans-20" transform="translate(2068.554688 0)"/>
     <use xlink:href="#DejaVuSans-3d" transform="translate(2100.341797 0)"/>
     <use xlink:href="#DejaVuSans-20" transform="translate(2184.130859 0)"/>
     <use xlink:href="#DejaVuSans-75" transform="translate(2215.917969 0)"/>
     <use xlink:href="#DejaVuSans-6e" transform="translate(2279.296875 0)"/>
     <use xlink:href="#DejaVuSans-63" transform="translate(2342.675781 0)"/>
     <use xlink:href="#DejaVuSans-68" transform="translate(2397.65625 0)"/>
     <use xlink:href="#DejaVuSans-61" transform="translate(2461.035156 0)"/>
     <use xlink:href="#DejaVuSans-6e" transform="translate(2522.314453 0)"/>
     <use xlink:href="#DejaVuSans-67" transform="translate(2585.693359 0)"/>
     <use xlink:href="#DejaVuSans-65" transform="translate(2649.169922 0)"/>
     <use xlink:href="#DejaVuSans-64" transform="translate(2710.693359 0)"/>
    </g>
   </g>
  </g>
 </g>
 <defs>
  <clipPath id="p62d0c01049">
   <rect x="48.08" y="36.384" width="401.92" height="382.096"/>
  </clipPath>
 </defs>
</svg>
